<svg width="50" height="50" viewBox="0 0 50 50" fill="none" xmlns="http://www.w3.org/2000/svg">
<path fill-rule="evenodd" clip-rule="evenodd" d="M0 25C0 11.1932 11.1932 0 25 0C38.8068 0 50 11.1932 50 25C50 38.8068 38.8068 50 25 50C11.1932 50 0 38.8068 0 25ZM18.1818 25C18.1818 24.6136 18.2045 24.2364 18.2523 23.8636H25C25.6028 23.8636 26.1808 23.6242 26.6071 23.198C27.0333 22.7717 27.2727 22.1937 27.2727 21.5909C27.2727 20.9881 27.0333 20.4101 26.6071 19.9838C26.1808 19.5576 25.6028 19.3182 25 19.3182H20.175C21.0261 18.2534 22.1061 17.3939 23.3349 16.8037C24.5636 16.2136 25.9096 15.9078 27.2727 15.9091C29.3227 15.9091 31.2068 16.5841 32.7273 17.7273C33.2095 18.0889 33.8156 18.2442 34.4123 18.159C35.009 18.0737 35.5474 17.7549 35.9091 17.2727C36.2707 16.7905 36.426 16.1844 36.3408 15.5877C36.2556 14.991 35.9368 14.4526 35.4545 14.0909C33.8252 12.8684 31.9428 12.0264 29.9454 11.6267C27.948 11.227 25.8865 11.2797 23.9122 11.7811C21.9379 12.2825 20.101 13.2197 18.5363 14.524C16.9717 15.8282 15.7191 17.4664 14.8705 19.3182H13.6364C13.0336 19.3182 12.4555 19.5576 12.0293 19.9838C11.6031 20.4101 11.3636 20.9881 11.3636 21.5909C11.3636 22.1937 11.6031 22.7717 12.0293 23.198C12.4555 23.6242 13.0336 23.8636 13.6364 23.8636H13.6818C13.6194 24.6199 13.6194 25.3801 13.6818 26.1364H13.6364C13.0336 26.1364 12.4555 26.3758 12.0293 26.802C11.6031 27.2283 11.3636 27.8063 11.3636 28.4091C11.3636 29.0119 11.6031 29.5899 12.0293 30.0162C12.4555 30.4424 13.0336 30.6818 13.6364 30.6818H14.8727C15.7213 32.5336 16.974 34.1718 18.5386 35.476C20.1033 36.7803 21.9402 37.7175 23.9145 38.2189C25.8888 38.7203 27.9503 38.773 29.9477 38.3733C31.945 37.9736 33.8275 37.1316 35.4568 35.9091C35.939 35.5471 36.2577 35.0084 36.3427 34.4115C36.4278 33.8146 36.2722 33.2083 35.9102 32.7261C35.5483 32.2439 35.0096 31.9253 34.4127 31.8402C33.8157 31.7552 33.2095 31.9108 32.7273 32.2727C31.2068 33.4159 29.3227 34.0909 27.2727 34.0909C25.9095 34.0924 24.5636 33.7867 23.3348 33.1965C22.106 32.6063 21.026 31.7468 20.175 30.6818H25C25.6028 30.6818 26.1808 30.4424 26.6071 30.0162C27.0333 29.5899 27.2727 29.0119 27.2727 28.4091C27.2727 27.8063 27.0333 27.2283 26.6071 26.802C26.1808 26.3758 25.6028 26.1364 25 26.1364H18.2523C18.2053 25.7594 18.1818 25.3799 18.1818 25Z" fill="#3861FB"/>
</svg>
