<svg width="500" height="500" viewBox="0 0 500 500" fill="none" xmlns="http://www.w3.org/2000/svg">
<path d="M215 295L161.25 241.25C156.667 236.667 150.833 234.375 143.75 234.375C136.667 234.375 130.833 236.667 126.25 241.25C121.667 245.833 119.375 251.667 119.375 258.75C119.375 265.833 121.667 271.667 126.25 276.25L197.5 347.5C202.5 352.5 208.333 355 215 355C221.667 355 227.5 352.5 232.5 347.5L373.75 206.25C378.333 201.667 380.625 195.833 380.625 188.75C380.625 181.667 378.333 175.833 373.75 171.25C369.167 166.667 363.333 164.375 356.25 164.375C349.167 164.375 343.333 166.667 338.75 171.25L215 295ZM250 500C215.417 500 182.917 493.433 152.5 480.3C122.083 467.167 95.625 449.358 73.125 426.875C50.625 404.375 32.8167 377.917 19.7 347.5C6.58334 317.083 0.0166667 284.583 0 250C0 215.417 6.56667 182.917 19.7 152.5C32.8333 122.083 50.6417 95.625 73.125 73.125C95.625 50.625 122.083 32.8167 152.5 19.7C182.917 6.58334 215.417 0.0166667 250 0C284.583 0 317.083 6.56667 347.5 19.7C377.917 32.8333 404.375 50.6417 426.875 73.125C449.375 95.625 467.192 122.083 480.325 152.5C493.458 182.917 500.017 215.417 500 250C500 284.583 493.433 317.083 480.3 347.5C467.167 377.917 449.358 404.375 426.875 426.875C404.375 449.375 377.917 467.192 347.5 480.325C317.083 493.458 284.583 500.017 250 500Z" fill="#00B484"/>
</svg>
