<svg width="50" height="50" viewBox="0 0 50 50" fill="none" xmlns="http://www.w3.org/2000/svg">
<path d="M25 0C20.0555 0 15.222 1.46622 11.1108 4.21326C6.99952 6.96029 3.79521 10.8648 1.90302 15.4329C0.0108321 20.0011 -0.484251 25.0277 0.480379 29.8773C1.44501 34.7268 3.82603 39.1814 7.32234 42.6777C10.8187 46.174 15.2732 48.555 20.1227 49.5196C24.9723 50.4842 29.9989 49.9892 34.5671 48.097C39.1352 46.2048 43.0397 43.0005 45.7867 38.8892C48.5338 34.778 50 29.9445 50 25C49.9873 18.3735 47.3493 12.022 42.6636 7.33636C37.978 2.65071 31.6265 0.0127067 25 0ZM27.8846 36.5385H26.9231V38.4615C26.9231 38.9716 26.7205 39.4607 26.3598 39.8214C25.9992 40.182 25.51 40.3846 25 40.3846C24.49 40.3846 24.0008 40.182 23.6402 39.8214C23.2795 39.4607 23.0769 38.9716 23.0769 38.4615V36.5385H19.2308C18.7207 36.5385 18.2316 36.3358 17.871 35.9752C17.5103 35.6146 17.3077 35.1254 17.3077 34.6154C17.3077 34.1053 17.5103 33.6162 17.871 33.2556C18.2316 32.8949 18.7207 32.6923 19.2308 32.6923H27.8846C28.6497 32.6923 29.3834 32.3884 29.9243 31.8474C30.4653 31.3064 30.7692 30.5727 30.7692 29.8077C30.7692 29.0426 30.4653 28.3089 29.9243 27.768C29.3834 27.227 28.6497 26.9231 27.8846 26.9231H22.1154C20.3303 26.9231 18.6183 26.2139 17.356 24.9517C16.0938 23.6894 15.3846 21.9774 15.3846 20.1923C15.3846 18.4072 16.0938 16.6952 17.356 15.4329C18.6183 14.1707 20.3303 13.4615 22.1154 13.4615H23.0769V11.5385C23.0769 11.0284 23.2795 10.5393 23.6402 10.1786C24.0008 9.81799 24.49 9.61538 25 9.61538C25.51 9.61538 25.9992 9.81799 26.3598 10.1786C26.7205 10.5393 26.9231 11.0284 26.9231 11.5385V13.4615H30.7692C31.2793 13.4615 31.7684 13.6641 32.1291 14.0248C32.4897 14.3854 32.6923 14.8746 32.6923 15.3846C32.6923 15.8946 32.4897 16.3838 32.1291 16.7444C31.7684 17.1051 31.2793 17.3077 30.7692 17.3077H22.1154C21.3503 17.3077 20.6166 17.6116 20.0757 18.1526C19.5347 18.6935 19.2308 19.4273 19.2308 20.1923C19.2308 20.9574 19.5347 21.6911 20.0757 22.232C20.6166 22.773 21.3503 23.0769 22.1154 23.0769H27.8846C29.6697 23.0769 31.3817 23.786 32.644 25.0483C33.9063 26.3106 34.6154 28.0226 34.6154 29.8077C34.6154 31.5928 33.9063 33.3048 32.644 34.5671C31.3817 35.8293 29.6697 36.5385 27.8846 36.5385Z" fill="#0FA958"/>
</svg>
