<svg width="30" height="30" viewBox="0 0 30 30" fill="none" xmlns="http://www.w3.org/2000/svg">
<path d="M4.11111 21.2222V18.1111M15 29V25.8889M25.8889 16.5556V13.4444M4.11111 8.77778V5.66667M15 16.5556V13.4444M25.8889 4.11111V1M7.22222 9.71111V17.1778C7.22222 17.4253 7.12389 17.6627 6.94886 17.8377C6.77382 18.0128 6.53642 18.1111 6.28889 18.1111H1.93333C1.6858 18.1111 1.4484 18.0128 1.27337 17.8377C1.09833 17.6627 1 17.4253 1 17.1778V9.71111C1 9.46358 1.09833 9.22618 1.27337 9.05114C1.4484 8.87611 1.6858 8.77778 1.93333 8.77778H6.28889C6.53642 8.77778 6.77382 8.87611 6.94886 9.05114C7.12389 9.22618 7.22222 9.46358 7.22222 9.71111ZM18.1111 17.4889V24.9556C18.1111 25.2031 18.0128 25.4405 17.8377 25.6155C17.6627 25.7906 17.4253 25.8889 17.1778 25.8889H12.8222C12.5747 25.8889 12.3373 25.7906 12.1623 25.6155C11.9872 25.4405 11.8889 25.2031 11.8889 24.9556V17.4889C11.8889 17.2414 11.9872 17.004 12.1623 16.8289C12.3373 16.6539 12.5747 16.5556 12.8222 16.5556H17.1778C17.4253 16.5556 17.6627 16.6539 17.8377 16.8289C18.0128 17.004 18.1111 17.2414 18.1111 17.4889ZM29 5.04444V12.5111C29 12.7586 28.9017 12.996 28.7266 13.1711C28.5516 13.3461 28.3142 13.4444 28.0667 13.4444H23.7111C23.5885 13.4444 23.4672 13.4203 23.3539 13.3734C23.2407 13.3265 23.1378 13.2577 23.0511 13.1711C22.9645 13.0844 22.8957 12.9815 22.8488 12.8683C22.8019 12.755 22.7778 12.6337 22.7778 12.5111V5.04444C22.7778 4.92188 22.8019 4.80051 22.8488 4.68727C22.8957 4.57404 22.9645 4.47115 23.0511 4.38448C23.1378 4.29781 23.2407 4.22906 23.3539 4.18216C23.4672 4.13525 23.5885 4.11111 23.7111 4.11111H28.0667C28.3142 4.11111 28.5516 4.20944 28.7266 4.38448C28.9017 4.55951 29 4.79691 29 5.04444Z" stroke="white" stroke-width="1.5" stroke-linecap="round" stroke-linejoin="round"/>
</svg>
